<?xml version="1.0" encoding="utf-8"?>
<!-- Generator: Adobe Illustrator 15.0.0, SVG Export Plug-In . SVG Version: 6.00 Build 0)  -->
<!DOCTYPE svg PUBLIC "-//W3C//DTD SVG 1.1//EN" "http://www.w3.org/Graphics/SVG/1.1/DTD/svg11.dtd">
<svg version="1.1" id="Layer_1" xmlns="http://www.w3.org/2000/svg" xmlns:xlink="http://www.w3.org/1999/xlink" x="0px" y="0px"
	 width="106px" height="84px" viewBox="0 0 106 84" enable-background="new 0 0 106 84" xml:space="preserve">
<path opacity="0.1" enable-background="new    " d="M80.784,40.098c0.478-1.548,0.725-3.2,0.725-4.9
	c0-9.264-7.504-16.772-16.77-16.772c-2.663,0-5.184,0.617-7.429,1.724c-3-8.908-11.42-15.318-21.339-15.318
	c-12.437,0-22.521,10.085-22.521,22.521c0,3.688,0.885,7.165,2.454,10.233C9.35,40.752,4.832,47.954,4.832,55.724
	c0,10.813,8.763,20.072,19.577,20.072h52.575c9.696,0,17.561-8.355,17.561-18.056C94.547,49.349,88.649,41.835,80.784,40.098z
	 M50.139,69.78c-0.944-0.042-2.855-0.631-3.282-1.862c-0.978-0.774-1.787-1.218-1.941-2.384l-0.081-0.318l9.766-0.389l-0.053,0.725
	c-0.153,1.163-0.63,1.623-1.606,2.397C52.516,69.18,51.083,69.738,50.139,69.78 M54.609,64.001L44.85,64.39l-0.003-1.312
	l9.763-0.396V64.001z M54.609,61.853l-9.763,0.395v-1.554h4.335h0.208h5.22V61.853z M61.49,48.681
	c-3.918,4.801-6.206,4.462-6.904,11.069h-2.572h-2.337h-2.285h-2.572c-0.698-6.607-2.986-6.269-6.904-11.069l0.053,0.029
	c-1.87-2.49-3.005-5.584-3.005-8.939c0-8.173,6.758-14.822,14.713-14.901c8.154,0.078,14.74,6.701,14.74,14.874
	c0,3.353-1.121,6.438-2.992,8.927L61.49,48.681z"/>
<path fill="#FFFFFF" d="M75.953,35.266c0.478-1.548,0.725-3.199,0.725-4.9c0-9.264-7.505-16.772-16.771-16.772
	c-2.663,0-5.183,0.617-7.428,1.724C49.479,6.41,41.059,0,31.14,0C18.703,0,8.619,10.085,8.619,22.521
	c0,3.688,0.884,7.165,2.453,10.233C4.519,35.919,0,43.123,0,50.892c0,10.814,8.762,20.072,19.577,20.072h52.575
	c9.696,0,17.561-8.354,17.561-18.056C89.715,44.517,83.817,37.004,75.953,35.266z M45.307,64.948
	c-0.944-0.042-2.855-0.63-3.282-1.861c-0.978-0.774-1.787-1.219-1.941-2.384l-0.081-0.319l9.766-0.389l-0.053,0.726
	c-0.153,1.162-0.63,1.622-1.607,2.396C47.684,64.348,46.251,64.906,45.307,64.948 M49.777,59.169l-9.759,0.389l-0.003-1.312
	l9.762-0.396V59.169z M49.777,57.021l-9.762,0.395v-1.555h4.335h0.208h5.219V57.021z M56.658,43.849
	c-3.917,4.801-6.206,4.462-6.903,11.069h-2.573h-2.337H42.56h-2.572c-0.698-6.607-2.987-6.269-6.904-11.069l0.053,0.03
	c-1.87-2.491-3.005-5.586-3.005-8.939c0-8.172,6.758-14.822,14.713-14.901c8.154,0.079,14.74,6.701,14.74,14.874
	c0,3.352-1.122,6.439-2.993,8.928L56.658,43.849z"/>
</svg>
